<?xml version="1.0" encoding="UTF-8"?>
<svg width="856px" height="787px" viewBox="0 0 856 787" version="1.1" xmlns="http://www.w3.org/2000/svg" xmlns:xlink="http://www.w3.org/1999/xlink">
    <title>编组 2</title>
    <defs>
        <path d="M368.989,0 C635.851,0 881.916,217.998 852.185,483.196 C808.696,871.11 289.129,853.495 287.819,610.939 C287.448,542.832 326.72,484.645 402.883,490.148 C402.883,490.148 486.312,498.84 496.74,585.746 C496.74,585.746 553.23,545.769 553.23,491.018 C553.23,491.018 560.185,447.565 487.182,411.934 C487.182,411.934 500.219,272.885 365.514,250.288 C262.944,233.084 90.854,244.074 -2.84217094e-14,171.266" id="path-1"></path>
        <linearGradient x1="51.3587004%" y1="63.5329823%" x2="46.8427827%" y2="1.33786221%" id="linearGradient-3">
            <stop stop-color="#FAB2FF" offset="0%"></stop>
            <stop stop-color="#5151E5" offset="100%"></stop>
        </linearGradient>
    </defs>
    <g id="页面-1" stroke="none" stroke-width="1" fill="none" fill-rule="evenodd">
        <g id="eagle-company-seeklogo.com" transform="translate(-103.000000, -127.000000)">
            <g id="编组" transform="translate(103.864000, 127.750000)">
                <mask id="mask-2" fill="white">
                    <use xlink:href="#path-1"></use>
                </mask>
                <g id="Clip-2"></g>
                <path d="M368.989,0 C221.032,0 88.632,66.523 -2.84217094e-14,171.266 C90.854,244.074 262.944,233.084 365.514,250.288 C500.219,272.885 487.182,411.934 487.182,411.934 C560.185,447.565 553.23,491.018 553.23,491.018 C553.23,545.769 496.74,585.746 496.74,585.746 C486.312,498.84 402.883,490.148 402.883,490.148 C326.72,484.645 287.448,542.832 287.819,610.939 C289.129,853.495 808.696,871.11 852.185,483.196 C881.916,217.998 635.851,0 368.989,0" id="Fill-1" fill="url(#linearGradient-3)" mask="url(#mask-2)"></path>
            </g>
        </g>
    </g>
</svg>